<?xml version="1.0" encoding="UTF-8" standalone="no"?>
<!-- Created with Inkscape (http://www.inkscape.org/) -->

<svg
   xmlns:dc="http://purl.org/dc/elements/1.1/"
   xmlns:cc="http://creativecommons.org/ns#"
   xmlns:rdf="http://www.w3.org/1999/02/22-rdf-syntax-ns#"
   xmlns:svg="http://www.w3.org/2000/svg"
   xmlns="http://www.w3.org/2000/svg"
   xmlns:xlink="http://www.w3.org/1999/xlink"
   xmlns:sodipodi="http://sodipodi.sourceforge.net/DTD/sodipodi-0.dtd"
   xmlns:inkscape="http://www.inkscape.org/namespaces/inkscape"
   width="210mm"
   height="297mm"
   id="svg2"
   version="1.1"
   inkscape:version="0.48.2 r9819"
   sodipodi:docname="icones.svg"
   enable-background="new">
  <defs
     id="defs4">
    <inkscape:perspective
       sodipodi:type="inkscape:persp3d"
       inkscape:vp_x="0 : 526.18109 : 1"
       inkscape:vp_y="0 : 1000 : 0"
       inkscape:vp_z="744.09448 : 526.18109 : 1"
       inkscape:persp3d-origin="372.04724 : 350.78739 : 1"
       id="perspective4073" />
    <linearGradient
       id="linearGradient3877">
      <stop
         id="stop3879"
         offset="0"
         style="stop-color:#908a8a;stop-opacity:1;" />
      <stop
         id="stop3881"
         offset="1"
         style="stop-color:#d4d4d4;stop-opacity:1;" />
    </linearGradient>
    <filter
       inkscape:collect="always"
       id="filter3945">
      <feBlend
         inkscape:collect="always"
         mode="lighten"
         in2="BackgroundImage"
         id="feBlend3947" />
    </filter>
    <radialGradient
       inkscape:collect="always"
       xlink:href="#linearGradient3877"
       id="radialGradient3972"
       gradientUnits="userSpaceOnUse"
       gradientTransform="matrix(0.97188227,-0.2354673,0.41492545,1.7125889,-295.95397,-387.49781)"
       cx="594.07281"
       cy="642.16907"
       fx="594.07281"
       fy="642.16907"
       r="52.270527" />
    <linearGradient
       inkscape:collect="always"
       xlink:href="#linearGradient3877"
       id="linearGradient3974"
       gradientUnits="userSpaceOnUse"
       x1="550.76056"
       y1="565.78833"
       x2="635.97058"
       y2="641.22614"
       gradientTransform="translate(-46.205662,-69.779979)" />
    <radialGradient
       inkscape:collect="always"
       xlink:href="#linearGradient3877"
       id="radialGradient3989"
       gradientUnits="userSpaceOnUse"
       gradientTransform="matrix(0.97188227,-0.2354673,0.41492545,1.7125889,-249.74831,-317.71783)"
       cx="594.07281"
       cy="642.16907"
       fx="594.07281"
       fy="642.16907"
       r="52.270527" />
    <linearGradient
       inkscape:collect="always"
       xlink:href="#linearGradient3877"
       id="linearGradient3991"
       gradientUnits="userSpaceOnUse"
       x1="550.76056"
       y1="565.78833"
       x2="635.97058"
       y2="641.22614" />
    <radialGradient
       inkscape:collect="always"
       xlink:href="#linearGradient3877"
       id="radialGradient4032"
       gradientUnits="userSpaceOnUse"
       gradientTransform="matrix(0.06264411,-0.01517739,0.02674463,0.11038745,624.7264,515.15958)"
       cx="594.07281"
       cy="642.16907"
       fx="594.07281"
       fy="642.16907"
       r="52.270527" />
    <linearGradient
       inkscape:collect="always"
       xlink:href="#linearGradient3877"
       id="linearGradient4034"
       gradientUnits="userSpaceOnUse"
       gradientTransform="matrix(0.06445648,0,0,0.06445648,640.82429,535.63855)"
       x1="550.76056"
       y1="565.78833"
       x2="635.97058"
       y2="641.22614" />
    <radialGradient
       inkscape:collect="always"
       xlink:href="#linearGradient3877"
       id="radialGradient4058"
       gradientUnits="userSpaceOnUse"
       gradientTransform="matrix(0.97188227,-0.2354673,0.41492545,1.7125889,-458.64887,-390.16494)"
       cx="594.07281"
       cy="642.16907"
       fx="594.07281"
       fy="642.16907"
       r="52.270527" />
    <linearGradient
       inkscape:collect="always"
       xlink:href="#linearGradient3877"
       id="linearGradient4060"
       gradientUnits="userSpaceOnUse"
       gradientTransform="matrix(0.66514276,0,0,1.0319187,-19.004036,-96.784977)"
       x1="550.76056"
       y1="565.78833"
       x2="635.97058"
       y2="641.22614" />
    <radialGradient
       inkscape:collect="always"
       xlink:href="#linearGradient3877"
       id="radialGradient4190"
       gradientUnits="userSpaceOnUse"
       gradientTransform="matrix(0.97188227,-0.2354673,0.41492545,1.7125889,-458.64887,-390.16494)"
       cx="594.07281"
       cy="642.16907"
       fx="594.07281"
       fy="642.16907"
       r="52.270527" />
    <linearGradient
       inkscape:collect="always"
       xlink:href="#linearGradient3877"
       id="linearGradient4192"
       gradientUnits="userSpaceOnUse"
       gradientTransform="matrix(0.66514276,0,0,1.0319187,-19.004036,-96.784977)"
       x1="550.76056"
       y1="565.78833"
       x2="635.97058"
       y2="641.22614" />
    <radialGradient
       inkscape:collect="always"
       xlink:href="#linearGradient3877"
       id="radialGradient4218"
       gradientUnits="userSpaceOnUse"
       gradientTransform="matrix(0.97188227,-0.2354673,0.41492545,1.7125889,-295.95397,-387.49781)"
       cx="594.07281"
       cy="642.16907"
       fx="594.07281"
       fy="642.16907"
       r="52.270527" />
    <linearGradient
       inkscape:collect="always"
       xlink:href="#linearGradient3877"
       id="linearGradient4220"
       gradientUnits="userSpaceOnUse"
       gradientTransform="translate(-46.205662,-69.779979)"
       x1="550.76056"
       y1="565.78833"
       x2="635.97058"
       y2="641.22614" />
    <radialGradient
       inkscape:collect="always"
       xlink:href="#linearGradient3877"
       id="radialGradient3283"
       gradientUnits="userSpaceOnUse"
       gradientTransform="matrix(0.97188227,-0.2354673,0.41492545,1.7125889,-458.64887,-390.16494)"
       cx="594.07281"
       cy="642.16907"
       fx="594.07281"
       fy="642.16907"
       r="52.270527" />
    <linearGradient
       inkscape:collect="always"
       xlink:href="#linearGradient3877"
       id="linearGradient3285"
       gradientUnits="userSpaceOnUse"
       gradientTransform="matrix(0.66514276,0,0,1.0319187,-19.004036,-96.784977)"
       x1="550.76056"
       y1="565.78833"
       x2="635.97058"
       y2="641.22614" />
  </defs>
  <sodipodi:namedview
     id="base"
     pagecolor="#ffffff"
     bordercolor="#666666"
     borderopacity="1.0"
     inkscape:pageopacity="0.0"
     inkscape:pageshadow="2"
     inkscape:zoom="8.4838088"
     inkscape:cx="160.42363"
     inkscape:cy="706.19919"
     inkscape:document-units="px"
     inkscape:current-layer="layer3"
     showgrid="false"
     inkscape:window-width="1392"
     inkscape:window-height="833"
     inkscape:window-x="0"
     inkscape:window-y="0"
     inkscape:window-maximized="0" />
  <metadata
     id="metadata7">
    <rdf:RDF>
      <cc:Work
         rdf:about="">
        <dc:format>image/svg+xml</dc:format>
        <dc:type
           rdf:resource="http://purl.org/dc/dcmitype/StillImage" />
        <dc:title></dc:title>
      </cc:Work>
    </rdf:RDF>
  </metadata>
  <g
     inkscape:label="Calque 1"
     inkscape:groupmode="layer"
     id="layer1"
     style="opacity:0.57661288;display:none"
     sodipodi:insensitive="true">
    <image
       y="354.8595"
       x="194.46202"
       id="image3047"
       xlink:href="file:///Users/tletou/Desktop/Fotolia_Coffrefort-300x300.jpg"
       height="300"
       width="300" />
  </g>
  <g
     inkscape:groupmode="layer"
     id="layer3"
     inkscape:label="TEST"
     style="opacity:1;display:inline;filter:url(#filter3945)">
    <g
       id="g3976"
       transform="matrix(0.07870807,0,0,0.07870807,620.93116,527.46009)">
      <rect
         ry="12.258645"
         y="578.98987"
         x="543.15228"
         height="126.35834"
         width="101.84105"
         id="rect3893"
         style="fill:url(#radialGradient3989);fill-opacity:1;stroke:#000000;stroke-width:2.70000005;stroke-linecap:round;stroke-linejoin:round;stroke-miterlimit:4;stroke-opacity:1;stroke-dasharray:none" />
      <rect
         ry="5.4220929"
         y="592.19153"
         x="556.35388"
         height="98.06916"
         width="78.266731"
         id="rect3895"
         style="fill:url(#linearGradient3991);fill-opacity:1;stroke:#000000;stroke-width:2.70000005;stroke-linecap:round;stroke-linejoin:round;stroke-miterlimit:4;stroke-opacity:1;stroke-dasharray:none" />
      <rect
         ry="4.1255054"
         y="603.27142"
         x="551.40326"
         height="16.502022"
         width="8.2510109"
         id="rect3897"
         style="fill:#dcd6d6;fill-opacity:1;stroke:#000000;stroke-width:2.70000005;stroke-linecap:round;stroke-linejoin:round;stroke-miterlimit:4;stroke-opacity:1;stroke-dasharray:none" />
      <rect
         ry="3.8897624"
         y="669.75104"
         x="552.58197"
         height="14.616076"
         width="7.7795248"
         id="rect3899"
         style="fill:#dcd6d6;fill-opacity:1;stroke:#000000;stroke-width:2.70000005;stroke-linecap:round;stroke-linejoin:round;stroke-miterlimit:4;stroke-opacity:1;stroke-dasharray:none" />
      <path
         id="path3901"
         d="m 600.34375,618.03125 c -11.70243,0.5932 -21,10.27515 -21,22.125 0,12.2321 9.92415,22.15625 22.15625,22.15625 12.2321,0 22.15625,-9.92415 22.15625,-22.15625 0,-12.2321 -9.92415,-22.125 -22.15625,-22.125 -0.38225,0 -0.77875,-0.0191 -1.15625,0 z M 601.5,621.4375 c 10.34145,0 18.71875,8.3773 18.71875,18.71875 0,10.34145 -8.3773,18.71875 -18.71875,18.71875 -10.34145,0 -18.71875,-8.3773 -18.71875,-18.71875 0,-10.34145 8.3773,-18.71875 18.71875,-18.71875 z"
         style="fill:#dcd6d6;fill-opacity:1;stroke:#111111;stroke-width:1;stroke-linecap:round;stroke-linejoin:round;stroke-miterlimit:4;stroke-opacity:1;stroke-dasharray:none"
         inkscape:connector-curvature="0" />
      <path
         transform="translate(0.35359865,0.58936552)"
         d="m 605.38846,639.57587 c 0,2.34355 -1.89983,4.24337 -4.24338,4.24337 -2.34355,0 -4.24338,-1.89982 -4.24338,-4.24337 0,-2.34356 1.89983,-4.24338 4.24338,-4.24338 2.34355,0 4.24338,1.89982 4.24338,4.24338 z"
         sodipodi:ry="4.2433772"
         sodipodi:rx="4.2433772"
         sodipodi:cy="639.57587"
         sodipodi:cx="601.14508"
         id="path3903"
         style="fill:#dcd6d6;fill-opacity:1;stroke:#000000;stroke-width:1.39999998;stroke-linecap:round;stroke-linejoin:round;stroke-miterlimit:4;stroke-opacity:1;stroke-dasharray:none"
         sodipodi:type="arc" />
      <path
         inkscape:connector-curvature="0"
         id="path3905"
         d="m 604.61731,637.40025 9.58302,-11.0749"
         style="fill:#000000;fill-opacity:1;stroke:#000000;stroke-width:2.54699993;stroke-linecap:butt;stroke-linejoin:miter;stroke-miterlimit:4;stroke-opacity:1;stroke-dasharray:none" />
      <path
         inkscape:connector-curvature="0"
         id="path3907"
         d="m 604.31821,642.86687 7.26129,13.53218"
         style="fill:none;stroke:#000000;stroke-width:2.5;stroke-linecap:butt;stroke-linejoin:miter;stroke-miterlimit:4;stroke-opacity:1;stroke-dasharray:none" />
      <path
         inkscape:connector-curvature="0"
         id="path3909"
         d="m 597.68116,639.87057 -14.45049,0"
         style="fill:none;stroke:#000000;stroke-width:2.28709245;stroke-linecap:butt;stroke-linejoin:miter;stroke-miterlimit:4;stroke-opacity:1;stroke-dasharray:none" />
      <rect
         ry="2.6671295"
         y="706.30212"
         x="557.76343"
         height="5.334259"
         width="16.336168"
         id="rect3927"
         style="fill:#000000;fill-opacity:1;stroke:#000000;stroke-width:3.5999999;stroke-linecap:round;stroke-linejoin:round;stroke-miterlimit:4;stroke-opacity:1;stroke-dasharray:none" />
      <rect
         style="fill:#000000;fill-opacity:1;stroke:#000000;stroke-width:3.5999999;stroke-linecap:round;stroke-linejoin:round;stroke-miterlimit:4;stroke-opacity:1;stroke-dasharray:none"
         id="rect3929"
         width="16.336168"
         height="5.334259"
         x="614.10657"
         y="706.6355"
         ry="2.6671295" />
    </g>
    <g
       id="g4139">
      <rect
         style="fill:url(#radialGradient3972);fill-opacity:1;stroke:#000000;stroke-width:2.70000005;stroke-linecap:round;stroke-linejoin:round;stroke-miterlimit:4;stroke-opacity:1;stroke-dasharray:none"
         id="rect3950"
         width="101.84105"
         height="126.35834"
         x="496.94662"
         y="509.2099"
         ry="12.258645" />
      <rect
         style="fill:url(#linearGradient3974);fill-opacity:1;stroke:#000000;stroke-width:2.70000005;stroke-linecap:round;stroke-linejoin:round;stroke-miterlimit:4;stroke-opacity:1;stroke-dasharray:none"
         id="rect3952"
         width="78.266731"
         height="98.06916"
         x="510.14822"
         y="522.41156"
         ry="5.4220929" />
      <rect
         style="fill:#dcd6d6;fill-opacity:1;stroke:#000000;stroke-width:2.70000005;stroke-linecap:round;stroke-linejoin:round;stroke-miterlimit:4;stroke-opacity:1;stroke-dasharray:none"
         id="rect3954"
         width="8.2510109"
         height="16.502022"
         x="505.1976"
         y="533.49146"
         ry="4.1255054" />
      <rect
         style="fill:#dcd6d6;fill-opacity:1;stroke:#000000;stroke-width:2.70000005;stroke-linecap:round;stroke-linejoin:round;stroke-miterlimit:4;stroke-opacity:1;stroke-dasharray:none"
         id="rect3956"
         width="7.7795248"
         height="14.616076"
         x="506.37631"
         y="599.97107"
         ry="3.8897624" />
      <path
         inkscape:connector-curvature="0"
         style="fill:#000000;fill-opacity:1;stroke:#111111;stroke-width:1;stroke-linecap:round;stroke-linejoin:round;stroke-miterlimit:4;stroke-opacity:1;stroke-dasharray:none"
         d="m 554.13809,548.25127 c -11.70243,0.5932 -21,10.27515 -21,22.125 0,12.2321 9.92415,22.15625 22.15625,22.15625 12.2321,0 22.15625,-9.92415 22.15625,-22.15625 0,-12.2321 -9.92415,-22.125 -22.15625,-22.125 -0.38225,0 -0.77875,-0.0191 -1.15625,0 z m 1.15625,3.40625 c 10.34145,0 18.71875,8.3773 18.71875,18.71875 0,10.34145 -8.3773,18.71875 -18.71875,18.71875 -10.34145,0 -18.71875,-8.3773 -18.71875,-18.71875 0,-10.34145 8.3773,-18.71875 18.71875,-18.71875 z"
         id="path3958" />
      <path
         sodipodi:type="arc"
         style="fill:#dcd6d6;fill-opacity:1;stroke:#000000;stroke-width:1.39999998;stroke-linecap:round;stroke-linejoin:round;stroke-miterlimit:4;stroke-opacity:1;stroke-dasharray:none"
         id="path3960"
         sodipodi:cx="601.14508"
         sodipodi:cy="639.57587"
         sodipodi:rx="4.2433772"
         sodipodi:ry="4.2433772"
         d="m 605.38846,639.57587 a 4.2433772,4.2433772 0 1 1 -8.48676,0 4.2433772,4.2433772 0 1 1 8.48676,0 z"
         transform="translate(-45.852062,-69.190614)" />
      <path
         style="fill:#000000;fill-opacity:1;stroke:#000000;stroke-width:2.54699993;stroke-linecap:butt;stroke-linejoin:miter;stroke-miterlimit:4;stroke-opacity:1;stroke-dasharray:none"
         d="m 558.41165,567.62027 9.58302,-11.0749"
         id="path3962"
         inkscape:connector-curvature="0" />
      <path
         style="fill:none;stroke:#000000;stroke-width:2.5;stroke-linecap:butt;stroke-linejoin:miter;stroke-miterlimit:4;stroke-opacity:1;stroke-dasharray:none"
         d="m 558.11255,573.08689 7.26129,13.53218"
         id="path3964"
         inkscape:connector-curvature="0" />
      <path
         style="fill:none;stroke:#000000;stroke-width:2.28709245;stroke-linecap:butt;stroke-linejoin:miter;stroke-miterlimit:4;stroke-opacity:1;stroke-dasharray:none"
         d="m 551.4755,570.09059 -14.45049,0"
         id="path3966"
         inkscape:connector-curvature="0" />
      <rect
         style="fill:#000000;fill-opacity:1;stroke:#000000;stroke-width:3.5999999;stroke-linecap:round;stroke-linejoin:round;stroke-miterlimit:4;stroke-opacity:1;stroke-dasharray:none"
         id="rect3968"
         width="16.336168"
         height="5.334259"
         x="511.55777"
         y="636.52216"
         ry="2.6671295" />
      <rect
         ry="2.6671295"
         y="636.85553"
         x="567.90094"
         height="5.334259"
         width="16.336168"
         id="rect3970"
         style="fill:#000000;fill-opacity:1;stroke:#000000;stroke-width:3.5999999;stroke-linecap:round;stroke-linejoin:round;stroke-miterlimit:4;stroke-opacity:1;stroke-dasharray:none" />
    </g>
    <g
       id="g4019"
       transform="translate(-43.376744,-48.091607)">
      <rect
         ry="0.79014909"
         y="572.95819"
         x="675.83398"
         height="8.1446133"
         width="6.5643153"
         id="rect3993"
         style="fill:url(#radialGradient4032);fill-opacity:1;stroke:#000000;stroke-width:0.17403249;stroke-linecap:round;stroke-linejoin:round;stroke-miterlimit:4;stroke-opacity:1;stroke-dasharray:none" />
      <rect
         ry="0.349489"
         y="573.80908"
         x="676.68488"
         height="6.3211927"
         width="5.0447979"
         id="rect3995"
         style="fill:url(#linearGradient4034);fill-opacity:1;stroke:#000000;stroke-width:0.17403249;stroke-linecap:round;stroke-linejoin:round;stroke-miterlimit:4;stroke-opacity:1;stroke-dasharray:none" />
      <rect
         ry="0.26591554"
         y="574.52325"
         x="676.36578"
         height="1.0636622"
         width="0.53183109"
         id="rect3997"
         style="fill:#dcd6d6;fill-opacity:1;stroke:#000000;stroke-width:0.17403249;stroke-linecap:round;stroke-linejoin:round;stroke-miterlimit:4;stroke-opacity:1;stroke-dasharray:none" />
      <rect
         ry="0.25072038"
         y="578.80835"
         x="676.44177"
         height="0.94210082"
         width="0.50144076"
         id="rect3999"
         style="fill:#dcd6d6;fill-opacity:1;stroke:#000000;stroke-width:0.17403249;stroke-linecap:round;stroke-linejoin:round;stroke-miterlimit:4;stroke-opacity:1;stroke-dasharray:none" />
      <path
         id="path4001"
         d="m 679.52033,575.47467 c -0.75429,0.0382 -1.35358,0.6623 -1.35358,1.4261 0,0.78844 0.63967,1.42812 1.42811,1.42812 0.78844,0 1.42811,-0.63968 1.42811,-1.42812 0,-0.78844 -0.63967,-1.4261 -1.42811,-1.4261 -0.0246,0 -0.0502,-10e-4 -0.0745,0 z m 0.0745,0.21956 c 0.66657,0 1.20655,0.53997 1.20655,1.20654 0,0.66658 -0.53998,1.20655 -1.20655,1.20655 -0.66657,0 -1.20654,-0.53997 -1.20654,-1.20655 0,-0.66657 0.53997,-1.20654 1.20654,-1.20654 z"
         style="fill:#000000;fill-opacity:1;stroke:#111111;stroke-width:0.06445648;stroke-linecap:round;stroke-linejoin:round;stroke-miterlimit:4;stroke-opacity:1;stroke-dasharray:none"
         inkscape:connector-curvature="0" />
      <path
         transform="matrix(0.06445648,0,0,0.06445648,640.84708,535.67654)"
         d="m 605.38846,639.57587 c 0,2.34355 -1.89983,4.24337 -4.24338,4.24337 -2.34355,0 -4.24338,-1.89982 -4.24338,-4.24337 0,-2.34356 1.89983,-4.24338 4.24338,-4.24338 2.34355,0 4.24338,1.89982 4.24338,4.24338 z"
         sodipodi:ry="4.2433772"
         sodipodi:rx="4.2433772"
         sodipodi:cy="639.57587"
         sodipodi:cx="601.14508"
         id="path4003"
         style="fill:#dcd6d6;fill-opacity:1;stroke:#000000;stroke-width:1.39999998;stroke-linecap:round;stroke-linejoin:round;stroke-miterlimit:4;stroke-opacity:1;stroke-dasharray:none"
         sodipodi:type="arc" />
      <path
         inkscape:connector-curvature="0"
         id="path4005"
         d="m 679.79579,576.72313 0.61769,-0.71385"
         style="fill:#000000;fill-opacity:1;stroke:#000000;stroke-width:0.16417065;stroke-linecap:butt;stroke-linejoin:miter;stroke-miterlimit:4;stroke-opacity:1;stroke-dasharray:none" />
      <path
         inkscape:connector-curvature="0"
         id="path4007"
         d="m 679.77651,577.07549 0.46804,0.87224"
         style="fill:none;stroke:#000000;stroke-width:0.1611412;stroke-linecap:butt;stroke-linejoin:miter;stroke-miterlimit:4;stroke-opacity:1;stroke-dasharray:none" />
      <path
         inkscape:connector-curvature="0"
         id="path4009"
         d="m 679.34871,576.88236 -0.93143,0"
         style="fill:none;stroke:#000000;stroke-width:0.14741792;stroke-linecap:butt;stroke-linejoin:miter;stroke-miterlimit:4;stroke-opacity:1;stroke-dasharray:none" />
      <rect
         ry="0.17191377"
         y="581.16425"
         x="676.77576"
         height="0.34382755"
         width="1.0529718"
         id="rect4011"
         style="fill:#000000;fill-opacity:1;stroke:#000000;stroke-width:0.23204331;stroke-linecap:round;stroke-linejoin:round;stroke-miterlimit:4;stroke-opacity:1;stroke-dasharray:none" />
      <rect
         style="fill:#000000;fill-opacity:1;stroke:#000000;stroke-width:0.23204331;stroke-linecap:round;stroke-linejoin:round;stroke-miterlimit:4;stroke-opacity:1;stroke-dasharray:none"
         id="rect4013"
         width="1.0529718"
         height="0.34382755"
         x="680.40741"
         y="581.18579"
         ry="0.17191377" />
    </g>
    <g
       id="g4119">
      <path
         inkscape:connector-curvature="0"
         id="path4065"
         d="m 421.27305,571.31819 -30.05725,0"
         style="fill:none;stroke:#000000;stroke-width:2.70000005;stroke-linecap:butt;stroke-linejoin:miter;stroke-miterlimit:4;stroke-opacity:1;stroke-dasharray:none" />
      <rect
         ry="12.258645"
         y="506.54276"
         x="334.25171"
         height="126.35834"
         width="101.84105"
         id="rect4036"
         style="fill:url(#radialGradient4058);fill-opacity:1;stroke:#000000;stroke-width:2.70000005;stroke-linecap:round;stroke-linejoin:round;stroke-miterlimit:4;stroke-opacity:1;stroke-dasharray:none" />
      <rect
         ry="4.1255054"
         y="519.93646"
         x="382.65085"
         height="101.68431"
         width="40.422577"
         id="rect4063"
         style="fill:#5d5d5d;fill-opacity:1;stroke:#000000;stroke-width:3.33826255999999999;stroke-linecap:round;stroke-linejoin:round;stroke-miterlimit:4;stroke-opacity:1;stroke-dasharray:none" />
      <use
         height="1052.3622"
         width="744.09448"
         transform="translate(0.23574317,28.504932)"
         id="use4067"
         xlink:href="#path4065"
         y="0"
         x="0" />
      <use
         height="1052.3622"
         width="744.09448"
         transform="translate(0.33339119,-57.009894)"
         id="use4069"
         xlink:href="#use4067"
         y="0"
         x="0" />
      <use
         height="1052.3622"
         width="744.09448"
         transform="translate(0.33339119,30.67199)"
         id="use4071"
         xlink:href="#use4069"
         y="0"
         x="0" />
      <path
         sodipodi:nodetypes="sssssssss"
         inkscape:connector-curvature="0"
         id="rect4038"
         d="m 355.97409,514.30859 41.72914,-5.41878 c 2.70485,-0.35124 5.88755,3.62652 5.8775,6.08931 l -0.42206,103.39123 c -0.01,2.4628 -2.91265,6.18762 -5.62103,5.86473 l -41.56355,-4.95528 c -2.70839,-0.3229 -4.9234,-1.9827 -4.9234,-4.44552 l 0,-96.08017 c 0,-2.46281 2.21854,-4.09428 4.9234,-4.44552 z"
         style="fill:url(#linearGradient4060);fill-opacity:1;stroke:#000000;stroke-width:2.2368865;stroke-linecap:round;stroke-linejoin:round;stroke-miterlimit:4;stroke-opacity:1"
         transform="matrix(0.99997713,0.00676276,-0.00676276,0.99997713,0,0)" />
      <rect
         ry="4.1255054"
         y="530.82434"
         x="342.50269"
         height="16.502022"
         width="8.2510109"
         id="rect4040"
         style="fill:#dcd6d6;fill-opacity:1;stroke:#000000;stroke-width:2.70000005;stroke-linecap:round;stroke-linejoin:round;stroke-miterlimit:4;stroke-opacity:1;stroke-dasharray:none" />
      <rect
         ry="3.8897624"
         y="597.30396"
         x="343.6814"
         height="14.616076"
         width="7.7795248"
         id="rect4042"
         style="fill:#dcd6d6;fill-opacity:1;stroke:#000000;stroke-width:2.70000005;stroke-linecap:round;stroke-linejoin:round;stroke-miterlimit:4;stroke-opacity:1;stroke-dasharray:none" />
      <rect
         ry="2.6671295"
         y="633.85504"
         x="348.86285"
         height="5.334259"
         width="16.336168"
         id="rect4054"
         style="fill:#000000;fill-opacity:1;stroke:#000000;stroke-width:3.5999999;stroke-linecap:round;stroke-linejoin:round;stroke-miterlimit:4;stroke-opacity:1;stroke-dasharray:none" />
      <rect
         style="fill:#000000;fill-opacity:1;stroke:#000000;stroke-width:3.5999999;stroke-linecap:round;stroke-linejoin:round;stroke-miterlimit:4;stroke-opacity:1;stroke-dasharray:none"
         id="rect4056"
         width="16.336168"
         height="5.334259"
         x="405.20602"
         y="634.18842"
         ry="2.6671295" />
      <path
         sodipodi:nodetypes="sssssssss"
         inkscape:connector-curvature="0"
         id="rect4089"
         d="m 406.53911,560.54305 9.72438,0.0295 c 0.39181,0.001 0.95343,0.2938 1.03139,0.67777 l 1.97435,9.72439 c 0.078,0.38398 -0.31543,0.70724 -0.70724,0.70724 l -14.49818,0 c -0.39181,0 -0.78725,-0.32369 -0.70724,-0.70724 l 2.00382,-9.60651 c 0.08,-0.38356 0.78692,-0.8263 1.17872,-0.82512 z"
         style="fill:#c2bd06;fill-opacity:1;stroke:#000000;stroke-width:1;stroke-linecap:round;stroke-linejoin:round;stroke-miterlimit:4;stroke-opacity:1;stroke-dashoffset:0" />
      <g
         transform="matrix(0.50054964,0,0,0.93753733,201.64995,141.1963)"
         id="g4102">
        <path
           inkscape:connector-curvature="0"
           style="fill:#000000;fill-opacity:1;stroke:#111111;stroke-width:1;stroke-linecap:round;stroke-linejoin:round;stroke-miterlimit:4;stroke-opacity:1;stroke-dasharray:none"
           d="m 344.05881,434.31336 c -11.70243,0.5932 -21,10.27515 -21,22.125 0,12.2321 9.92415,22.15625 22.15625,22.15625 12.2321,0 22.15625,-9.92415 22.15625,-22.15625 0,-12.2321 -9.92415,-22.125 -22.15625,-22.125 -0.38225,0 -0.77875,-0.0191 -1.15625,0 z m 1.15625,3.40625 c 10.34145,0 18.71875,8.3773 18.71875,18.71875 0,10.34145 -8.3773,18.71875 -18.71875,18.71875 -10.34145,0 -18.71875,-8.3773 -18.71875,-18.71875 0,-10.34145 8.3773,-18.71875 18.71875,-18.71875 z"
           id="use4092"
           sodipodi:nodetypes="csssscsssss" />
        <path
           sodipodi:type="arc"
           style="fill:#dcd6d6;fill-opacity:1;stroke:#000000;stroke-width:1.39999998;stroke-linecap:round;stroke-linejoin:round;stroke-miterlimit:4;stroke-opacity:1;stroke-dasharray:none"
           id="use4094"
           sodipodi:cx="601.14508"
           sodipodi:cy="639.57587"
           sodipodi:rx="4.2433772"
           sodipodi:ry="4.2433772"
           d="m 605.38846,639.57587 c 0,2.34355 -1.89983,4.24337 -4.24338,4.24337 -2.34355,0 -4.24338,-1.89982 -4.24338,-4.24337 0,-2.34356 1.89983,-4.24338 4.24338,-4.24338 2.34355,0 4.24338,1.89982 4.24338,4.24338 z"
           transform="translate(-255.93134,-183.12852)" />
        <path
           style="fill:#000000;fill-opacity:1;stroke:#000000;stroke-width:2.54699993;stroke-linecap:butt;stroke-linejoin:miter;stroke-miterlimit:4;stroke-opacity:1;stroke-dasharray:none"
           d="m 348.33237,453.68236 9.58302,-11.0749"
           id="use4096"
           inkscape:connector-curvature="0"
           sodipodi:nodetypes="cc" />
        <path
           style="fill:none;stroke:#000000;stroke-width:2.5;stroke-linecap:butt;stroke-linejoin:miter;stroke-miterlimit:4;stroke-opacity:1;stroke-dasharray:none"
           d="m 348.03327,459.14898 7.26129,13.53218"
           id="use4098"
           inkscape:connector-curvature="0"
           sodipodi:nodetypes="cc" />
        <path
           style="fill:none;stroke:#000000;stroke-width:2.28709245;stroke-linecap:butt;stroke-linejoin:miter;stroke-miterlimit:4;stroke-opacity:1;stroke-dasharray:none"
           d="m 341.39622,456.15268 -14.45049,0"
           id="use4100"
           inkscape:connector-curvature="0"
           sodipodi:nodetypes="cc" />
      </g>
    </g>
    <g
       id="g4152"
       transform="matrix(0.0956562,0,0,0.0956562,307.72541,629.98486)">
      <path
         style="fill:none;stroke:#000000;stroke-width:2.70000005;stroke-linecap:butt;stroke-linejoin:miter;stroke-miterlimit:4;stroke-opacity:1;stroke-dasharray:none"
         d="m 421.27305,571.31819 -30.05725,0"
         id="path4154"
         inkscape:connector-curvature="0" />
      <rect
         style="fill:url(#radialGradient4190);fill-opacity:1;stroke:#000000;stroke-width:2.70000005;stroke-linecap:round;stroke-linejoin:round;stroke-miterlimit:4;stroke-opacity:1;stroke-dasharray:none"
         id="rect4156"
         width="101.84105"
         height="126.35834"
         x="334.25171"
         y="506.54276"
         ry="12.258645" />
      <rect
         style="fill:#5d5d5d;fill-opacity:1;stroke:#000000;stroke-width:3.33826256;stroke-linecap:round;stroke-linejoin:round;stroke-miterlimit:4;stroke-opacity:1;stroke-dasharray:none"
         id="rect4158"
         width="40.422577"
         height="101.68431"
         x="382.65085"
         y="519.93646"
         ry="4.1255054" />
      <use
         x="0"
         y="0"
         xlink:href="#path4065"
         id="use4160"
         transform="translate(0.23574317,28.504932)"
         width="744.09448"
         height="1052.3622" />
      <use
         x="0"
         y="0"
         xlink:href="#use4067"
         id="use4162"
         transform="translate(0.33339119,-57.009894)"
         width="744.09448"
         height="1052.3622" />
      <use
         x="0"
         y="0"
         xlink:href="#use4069"
         id="use4164"
         transform="translate(0.33339119,30.67199)"
         width="744.09448"
         height="1052.3622" />
      <path
         transform="matrix(0.99997713,0.00676276,-0.00676276,0.99997713,0,0)"
         style="fill:url(#linearGradient4192);fill-opacity:1;stroke:#000000;stroke-width:2.2368865;stroke-linecap:round;stroke-linejoin:round;stroke-miterlimit:4;stroke-opacity:1"
         d="m 355.97409,514.30859 41.72914,-5.41878 c 2.70485,-0.35124 5.88755,3.62652 5.8775,6.08931 l -0.42206,103.39123 c -0.01,2.4628 -2.91265,6.18762 -5.62103,5.86473 l -41.56355,-4.95528 c -2.70839,-0.3229 -4.9234,-1.9827 -4.9234,-4.44552 l 0,-96.08017 c 0,-2.46281 2.21854,-4.09428 4.9234,-4.44552 z"
         id="path4166"
         inkscape:connector-curvature="0"
         sodipodi:nodetypes="sssssssss" />
      <rect
         style="fill:#dcd6d6;fill-opacity:1;stroke:#000000;stroke-width:2.70000005;stroke-linecap:round;stroke-linejoin:round;stroke-miterlimit:4;stroke-opacity:1;stroke-dasharray:none"
         id="rect4168"
         width="8.2510109"
         height="16.502022"
         x="342.50269"
         y="530.82434"
         ry="4.1255054" />
      <rect
         style="fill:#dcd6d6;fill-opacity:1;stroke:#000000;stroke-width:2.70000005;stroke-linecap:round;stroke-linejoin:round;stroke-miterlimit:4;stroke-opacity:1;stroke-dasharray:none"
         id="rect4170"
         width="7.7795248"
         height="14.616076"
         x="343.6814"
         y="597.30396"
         ry="3.8897624" />
      <rect
         style="fill:#000000;fill-opacity:1;stroke:#000000;stroke-width:3.5999999;stroke-linecap:round;stroke-linejoin:round;stroke-miterlimit:4;stroke-opacity:1;stroke-dasharray:none"
         id="rect4172"
         width="16.336168"
         height="5.334259"
         x="348.86285"
         y="633.85504"
         ry="2.6671295" />
      <rect
         ry="2.6671295"
         y="634.18842"
         x="405.20602"
         height="5.334259"
         width="16.336168"
         id="rect4174"
         style="fill:#000000;fill-opacity:1;stroke:#000000;stroke-width:3.5999999;stroke-linecap:round;stroke-linejoin:round;stroke-miterlimit:4;stroke-opacity:1;stroke-dasharray:none" />
      <path
         style="fill:#c2bd06;fill-opacity:1;stroke:#000000;stroke-width:1;stroke-linecap:round;stroke-linejoin:round;stroke-miterlimit:4;stroke-opacity:1;stroke-dashoffset:0"
         d="m 406.53911,560.54305 9.72438,0.0295 c 0.39181,10e-4 0.95343,0.2938 1.03139,0.67777 l 1.97435,9.72439 c 0.078,0.38398 -0.31543,0.70724 -0.70724,0.70724 l -14.49818,0 c -0.39181,0 -0.78725,-0.32369 -0.70724,-0.70724 l 2.00382,-9.60651 c 0.08,-0.38356 0.78692,-0.8263 1.17872,-0.82512 z"
         id="path4176"
         inkscape:connector-curvature="0"
         sodipodi:nodetypes="sssssssss" />
      <g
         id="g4178"
         transform="matrix(0.50054964,0,0,0.93753733,201.64995,141.1963)">
        <path
           sodipodi:nodetypes="csssscsssss"
           id="path4180"
           d="m 344.05881,434.31336 c -11.70243,0.5932 -21,10.27515 -21,22.125 0,12.2321 9.92415,22.15625 22.15625,22.15625 12.2321,0 22.15625,-9.92415 22.15625,-22.15625 0,-12.2321 -9.92415,-22.125 -22.15625,-22.125 -0.38225,0 -0.77875,-0.0191 -1.15625,0 z m 1.15625,3.40625 c 10.34145,0 18.71875,8.3773 18.71875,18.71875 0,10.34145 -8.3773,18.71875 -18.71875,18.71875 -10.34145,0 -18.71875,-8.3773 -18.71875,-18.71875 0,-10.34145 8.3773,-18.71875 18.71875,-18.71875 z"
           style="fill:#000000;fill-opacity:1;stroke:#111111;stroke-width:1;stroke-linecap:round;stroke-linejoin:round;stroke-miterlimit:4;stroke-opacity:1;stroke-dasharray:none"
           inkscape:connector-curvature="0" />
        <path
           transform="translate(-255.93134,-183.12852)"
           d="m 605.38846,639.57587 c 0,2.34355 -1.89983,4.24337 -4.24338,4.24337 -2.34355,0 -4.24338,-1.89982 -4.24338,-4.24337 0,-2.34356 1.89983,-4.24338 4.24338,-4.24338 2.34355,0 4.24338,1.89982 4.24338,4.24338 z"
           sodipodi:ry="4.2433772"
           sodipodi:rx="4.2433772"
           sodipodi:cy="639.57587"
           sodipodi:cx="601.14508"
           id="path4182"
           style="fill:#dcd6d6;fill-opacity:1;stroke:#000000;stroke-width:1.39999998;stroke-linecap:round;stroke-linejoin:round;stroke-miterlimit:4;stroke-opacity:1;stroke-dasharray:none"
           sodipodi:type="arc" />
        <path
           sodipodi:nodetypes="cc"
           inkscape:connector-curvature="0"
           id="path4184"
           d="m 348.33237,453.68236 9.58302,-11.0749"
           style="fill:#000000;fill-opacity:1;stroke:#000000;stroke-width:2.54699993;stroke-linecap:butt;stroke-linejoin:miter;stroke-miterlimit:4;stroke-opacity:1;stroke-dasharray:none" />
        <path
           sodipodi:nodetypes="cc"
           inkscape:connector-curvature="0"
           id="path4186"
           d="m 348.03327,459.14898 7.26129,13.53218"
           style="fill:none;stroke:#000000;stroke-width:2.5;stroke-linecap:butt;stroke-linejoin:miter;stroke-miterlimit:4;stroke-opacity:1;stroke-dasharray:none" />
        <path
           sodipodi:nodetypes="cc"
           inkscape:connector-curvature="0"
           id="path4188"
           d="m 341.39622,456.15268 -14.45049,0"
           style="fill:none;stroke:#000000;stroke-width:2.28709245;stroke-linecap:butt;stroke-linejoin:miter;stroke-miterlimit:4;stroke-opacity:1;stroke-dasharray:none" />
      </g>
    </g>
    <g
       id="g4194"
       transform="matrix(0.0956562,0,0,0.0956562,305.4983,629.72972)">
      <rect
         ry="12.258645"
         y="509.2099"
         x="496.94662"
         height="126.35834"
         width="101.84105"
         id="rect4196"
         style="fill:url(#radialGradient4218);fill-opacity:1;stroke:#000000;stroke-width:2.70000005;stroke-linecap:round;stroke-linejoin:round;stroke-miterlimit:4;stroke-opacity:1;stroke-dasharray:none" />
      <rect
         ry="5.4220929"
         y="522.41156"
         x="510.14822"
         height="98.06916"
         width="78.266731"
         id="rect4198"
         style="fill:url(#linearGradient4220);fill-opacity:1;stroke:#000000;stroke-width:2.70000005;stroke-linecap:round;stroke-linejoin:round;stroke-miterlimit:4;stroke-opacity:1;stroke-dasharray:none" />
      <rect
         ry="4.1255054"
         y="533.49146"
         x="505.1976"
         height="16.502022"
         width="8.2510109"
         id="rect4200"
         style="fill:#dcd6d6;fill-opacity:1;stroke:#000000;stroke-width:2.70000005;stroke-linecap:round;stroke-linejoin:round;stroke-miterlimit:4;stroke-opacity:1;stroke-dasharray:none" />
      <rect
         ry="3.8897624"
         y="599.97107"
         x="506.37631"
         height="14.616076"
         width="7.7795248"
         id="rect4202"
         style="fill:#dcd6d6;fill-opacity:1;stroke:#000000;stroke-width:2.70000005;stroke-linecap:round;stroke-linejoin:round;stroke-miterlimit:4;stroke-opacity:1;stroke-dasharray:none" />
      <path
         id="path4204"
         d="m 554.13809,548.25127 c -11.70243,0.5932 -21,10.27515 -21,22.125 0,12.2321 9.92415,22.15625 22.15625,22.15625 12.2321,0 22.15625,-9.92415 22.15625,-22.15625 0,-12.2321 -9.92415,-22.125 -22.15625,-22.125 -0.38225,0 -0.77875,-0.0191 -1.15625,0 z m 1.15625,3.40625 c 10.34145,0 18.71875,8.3773 18.71875,18.71875 0,10.34145 -8.3773,18.71875 -18.71875,18.71875 -10.34145,0 -18.71875,-8.3773 -18.71875,-18.71875 0,-10.34145 8.3773,-18.71875 18.71875,-18.71875 z"
         style="fill:#000000;fill-opacity:1;stroke:#111111;stroke-width:1;stroke-linecap:round;stroke-linejoin:round;stroke-miterlimit:4;stroke-opacity:1;stroke-dasharray:none"
         inkscape:connector-curvature="0" />
      <path
         transform="translate(-45.852062,-69.190614)"
         d="m 605.38846,639.57587 c 0,2.34355 -1.89983,4.24337 -4.24338,4.24337 -2.34355,0 -4.24338,-1.89982 -4.24338,-4.24337 0,-2.34356 1.89983,-4.24338 4.24338,-4.24338 2.34355,0 4.24338,1.89982 4.24338,4.24338 z"
         sodipodi:ry="4.2433772"
         sodipodi:rx="4.2433772"
         sodipodi:cy="639.57587"
         sodipodi:cx="601.14508"
         id="path4206"
         style="fill:#dcd6d6;fill-opacity:1;stroke:#000000;stroke-width:1.39999998;stroke-linecap:round;stroke-linejoin:round;stroke-miterlimit:4;stroke-opacity:1;stroke-dasharray:none"
         sodipodi:type="arc" />
      <path
         inkscape:connector-curvature="0"
         id="path4208"
         d="m 558.41165,567.62027 9.58302,-11.0749"
         style="fill:#000000;fill-opacity:1;stroke:#000000;stroke-width:2.54699993;stroke-linecap:butt;stroke-linejoin:miter;stroke-miterlimit:4;stroke-opacity:1;stroke-dasharray:none" />
      <path
         inkscape:connector-curvature="0"
         id="path4210"
         d="m 558.11255,573.08689 7.26129,13.53218"
         style="fill:none;stroke:#000000;stroke-width:2.5;stroke-linecap:butt;stroke-linejoin:miter;stroke-miterlimit:4;stroke-opacity:1;stroke-dasharray:none" />
      <path
         inkscape:connector-curvature="0"
         id="path4212"
         d="m 551.4755,570.09059 -14.45049,0"
         style="fill:none;stroke:#000000;stroke-width:2.28709245;stroke-linecap:butt;stroke-linejoin:miter;stroke-miterlimit:4;stroke-opacity:1;stroke-dasharray:none" />
      <rect
         ry="2.6671295"
         y="636.52216"
         x="511.55777"
         height="5.334259"
         width="16.336168"
         id="rect4214"
         style="fill:#000000;fill-opacity:1;stroke:#000000;stroke-width:3.5999999;stroke-linecap:round;stroke-linejoin:round;stroke-miterlimit:4;stroke-opacity:1;stroke-dasharray:none" />
      <rect
         style="fill:#000000;fill-opacity:1;stroke:#000000;stroke-width:3.5999999;stroke-linecap:round;stroke-linejoin:round;stroke-miterlimit:4;stroke-opacity:1;stroke-dasharray:none"
         id="rect4216"
         width="16.336168"
         height="5.334259"
         x="567.90094"
         y="636.85553"
         ry="2.6671295" />
    </g>
    <g
       id="g3245"
       transform="matrix(0.42159505,0,0,0.42159505,-96.940625,111.15523)"
       inkscape:export-filename="/Users/tletou/Desktop/logocentaure.png"
       inkscape:export-xdpi="180"
       inkscape:export-ydpi="180">
      <path
         style="fill:none;stroke:#000000;stroke-width:2.70000005;stroke-linecap:butt;stroke-linejoin:miter;stroke-miterlimit:4;stroke-opacity:1;stroke-dasharray:none"
         d="m 421.27305,571.31819 -30.05725,0"
         id="path3247"
         inkscape:connector-curvature="0" />
      <rect
         style="fill:url(#radialGradient3283);fill-opacity:1;stroke:#000000;stroke-width:2.70000005;stroke-linecap:round;stroke-linejoin:round;stroke-miterlimit:4;stroke-opacity:1;stroke-dasharray:none"
         id="rect3249"
         width="101.84105"
         height="126.35834"
         x="334.25171"
         y="506.54276"
         ry="12.258645" />
      <rect
         style="fill:#5d5d5d;fill-opacity:1;stroke:#000000;stroke-width:3.33826256;stroke-linecap:round;stroke-linejoin:round;stroke-miterlimit:4;stroke-opacity:1;stroke-dasharray:none"
         id="rect3251"
         width="40.422577"
         height="101.68431"
         x="382.65085"
         y="519.93646"
         ry="4.1255054" />
      <use
         x="0"
         y="0"
         xlink:href="#path4065"
         id="use3253"
         transform="translate(0.23574317,28.504932)"
         width="744.09448"
         height="1052.3622" />
      <use
         x="0"
         y="0"
         xlink:href="#use4067"
         id="use3255"
         transform="translate(0.33339119,-57.009894)"
         width="744.09448"
         height="1052.3622" />
      <use
         x="0"
         y="0"
         xlink:href="#use4069"
         id="use3257"
         transform="translate(0.33339119,30.67199)"
         width="744.09448"
         height="1052.3622" />
      <path
         transform="matrix(0.99997713,0.00676276,-0.00676276,0.99997713,0,0)"
         style="fill:url(#linearGradient3285);fill-opacity:1;stroke:#000000;stroke-width:2.2368865;stroke-linecap:round;stroke-linejoin:round;stroke-miterlimit:4;stroke-opacity:1"
         d="m 355.97409,514.30859 41.72914,-5.41878 c 2.70485,-0.35124 5.88755,3.62652 5.8775,6.08931 l -0.42206,103.39123 c -0.01,2.4628 -2.91265,6.18762 -5.62103,5.86473 l -41.56355,-4.95528 c -2.70839,-0.3229 -4.9234,-1.9827 -4.9234,-4.44552 l 0,-96.08017 c 0,-2.46281 2.21854,-4.09428 4.9234,-4.44552 z"
         id="path3259"
         inkscape:connector-curvature="0"
         sodipodi:nodetypes="sssssssss" />
      <rect
         style="fill:#dcd6d6;fill-opacity:1;stroke:#000000;stroke-width:2.70000005;stroke-linecap:round;stroke-linejoin:round;stroke-miterlimit:4;stroke-opacity:1;stroke-dasharray:none"
         id="rect3261"
         width="8.2510109"
         height="16.502022"
         x="342.50269"
         y="530.82434"
         ry="4.1255054" />
      <rect
         style="fill:#dcd6d6;fill-opacity:1;stroke:#000000;stroke-width:2.70000005;stroke-linecap:round;stroke-linejoin:round;stroke-miterlimit:4;stroke-opacity:1;stroke-dasharray:none"
         id="rect3263"
         width="7.7795248"
         height="14.616076"
         x="343.6814"
         y="597.30396"
         ry="3.8897624" />
      <rect
         style="fill:#000000;fill-opacity:1;stroke:#000000;stroke-width:3.5999999;stroke-linecap:round;stroke-linejoin:round;stroke-miterlimit:4;stroke-opacity:1;stroke-dasharray:none"
         id="rect3265"
         width="16.336168"
         height="5.334259"
         x="348.86285"
         y="633.85504"
         ry="2.6671295" />
      <rect
         ry="2.6671295"
         y="634.18842"
         x="405.20602"
         height="5.334259"
         width="16.336168"
         id="rect3267"
         style="fill:#000000;fill-opacity:1;stroke:#000000;stroke-width:3.5999999;stroke-linecap:round;stroke-linejoin:round;stroke-miterlimit:4;stroke-opacity:1;stroke-dasharray:none" />
      <path
         style="fill:#c2bd06;fill-opacity:1;stroke:#000000;stroke-width:1;stroke-linecap:round;stroke-linejoin:round;stroke-miterlimit:4;stroke-opacity:1;stroke-dashoffset:0"
         d="m 406.53911,560.54305 9.72438,0.0295 c 0.39181,10e-4 0.95343,0.2938 1.03139,0.67777 l 1.97435,9.72439 c 0.078,0.38398 -0.31543,0.70724 -0.70724,0.70724 l -14.49818,0 c -0.39181,0 -0.78725,-0.32369 -0.70724,-0.70724 l 2.00382,-9.60651 c 0.08,-0.38356 0.78692,-0.8263 1.17872,-0.82512 z"
         id="path3269"
         inkscape:connector-curvature="0"
         sodipodi:nodetypes="sssssssss" />
      <g
         id="g3271"
         transform="matrix(0.50054964,0,0,0.93753733,201.64995,141.1963)">
        <path
           sodipodi:nodetypes="csssscsssss"
           id="path3273"
           d="m 344.05881,434.31336 c -11.70243,0.5932 -21,10.27515 -21,22.125 0,12.2321 9.92415,22.15625 22.15625,22.15625 12.2321,0 22.15625,-9.92415 22.15625,-22.15625 0,-12.2321 -9.92415,-22.125 -22.15625,-22.125 -0.38225,0 -0.77875,-0.0191 -1.15625,0 z m 1.15625,3.40625 c 10.34145,0 18.71875,8.3773 18.71875,18.71875 0,10.34145 -8.3773,18.71875 -18.71875,18.71875 -10.34145,0 -18.71875,-8.3773 -18.71875,-18.71875 0,-10.34145 8.3773,-18.71875 18.71875,-18.71875 z"
           style="fill:#000000;fill-opacity:1;stroke:#111111;stroke-width:1;stroke-linecap:round;stroke-linejoin:round;stroke-miterlimit:4;stroke-opacity:1;stroke-dasharray:none"
           inkscape:connector-curvature="0" />
        <path
           transform="translate(-255.93134,-183.12852)"
           d="m 605.38846,639.57587 c 0,2.34355 -1.89983,4.24337 -4.24338,4.24337 -2.34355,0 -4.24338,-1.89982 -4.24338,-4.24337 0,-2.34356 1.89983,-4.24338 4.24338,-4.24338 2.34355,0 4.24338,1.89982 4.24338,4.24338 z"
           sodipodi:ry="4.2433772"
           sodipodi:rx="4.2433772"
           sodipodi:cy="639.57587"
           sodipodi:cx="601.14508"
           id="path3275"
           style="fill:#dcd6d6;fill-opacity:1;stroke:#000000;stroke-width:1.39999998;stroke-linecap:round;stroke-linejoin:round;stroke-miterlimit:4;stroke-opacity:1;stroke-dasharray:none"
           sodipodi:type="arc" />
        <path
           sodipodi:nodetypes="cc"
           inkscape:connector-curvature="0"
           id="path3277"
           d="m 348.33237,453.68236 9.58302,-11.0749"
           style="fill:#000000;fill-opacity:1;stroke:#000000;stroke-width:2.54699993;stroke-linecap:butt;stroke-linejoin:miter;stroke-miterlimit:4;stroke-opacity:1;stroke-dasharray:none" />
        <path
           sodipodi:nodetypes="cc"
           inkscape:connector-curvature="0"
           id="path3279"
           d="m 348.03327,459.14898 7.26129,13.53218"
           style="fill:none;stroke:#000000;stroke-width:2.5;stroke-linecap:butt;stroke-linejoin:miter;stroke-miterlimit:4;stroke-opacity:1;stroke-dasharray:none" />
        <path
           sodipodi:nodetypes="cc"
           inkscape:connector-curvature="0"
           id="path3281"
           d="m 341.39622,456.15268 -14.45049,0"
           style="fill:none;stroke:#000000;stroke-width:2.28709245;stroke-linecap:butt;stroke-linejoin:miter;stroke-miterlimit:4;stroke-opacity:1;stroke-dasharray:none" />
      </g>
    </g>
    <flowRoot
       xml:space="preserve"
       id="flowRoot3297"
       style="fill:black;stroke:none;stroke-opacity:1;stroke-width:1px;stroke-linejoin:miter;stroke-linecap:butt;fill-opacity:1;font-family:Nanum Gothic;font-style:normal;font-weight:normal;font-size:4px;line-height:125%;letter-spacing:0px;word-spacing:0px;-inkscape-font-specification:Nanum Gothic;font-stretch:normal;font-variant:normal"><flowRegion
         id="flowRegion3299"><rect
           id="rect3301"
           width="265.44681"
           height="147.57523"
           x="29.232153"
           y="297.04105" /></flowRegion><flowPara
         id="flowPara3303"></flowPara></flowRoot>    <flowRoot
       xml:space="preserve"
       id="flowRoot3305"
       style="fill:black;stroke:none;stroke-opacity:1;stroke-width:1px;stroke-linejoin:miter;stroke-linecap:butt;fill-opacity:1;font-family:Nanum Gothic;font-style:normal;font-weight:normal;font-size:4px;line-height:125%;letter-spacing:0px;word-spacing:0px;-inkscape-font-specification:Nanum Gothic;font-stretch:normal;font-variant:normal"><flowRegion
         id="flowRegion3307"><rect
           id="rect3309"
           width="82.981598"
           height="38.66188"
           x="84.396057"
           y="298.45551" /></flowRegion><flowPara
         id="flowPara3311"></flowPara></flowRoot>    <flowRoot
       xml:space="preserve"
       id="flowRoot3287"
       style="font-size:4px;font-style:normal;font-variant:normal;font-weight:normal;font-stretch:normal;line-height:125%;letter-spacing:0px;word-spacing:0px;fill:#000000;fill-opacity:1;stroke:none;font-family:Nanum Gothic;-inkscape-font-specification:Nanum Gothic"
       transform="matrix(0.71531992,0,0,0.1372763,6.9715802,313.70821)"
       inkscape:export-filename="/Users/tletou/Desktop/logocentaure.png"
       inkscape:export-xdpi="180"
       inkscape:export-ydpi="180"><flowRegion
         id="flowRegion3289"><rect
           id="rect3291"
           width="354.55774"
           height="104.66998"
           x="118.81456"
           y="327.21619" /></flowRegion><flowPara
         id="flowPara3293"
         style="font-size:28px;font-style:normal;font-variant:normal;font-weight:bold;font-stretch:normal;font-family:PortagoITC TT;-inkscape-font-specification:PortagoITC TT" /><flowPara
         id="flowPara3295"
         style="font-size:12px">Si tu l'as pas, t'es mort!</flowPara></flowRoot>    <text
       xml:space="preserve"
       style="font-size:4px;font-style:normal;font-variant:normal;font-weight:normal;font-stretch:normal;line-height:125%;letter-spacing:0px;word-spacing:0px;fill:#000000;fill-opacity:1;stroke:none;font-family:Nanum Gothic;-inkscape-font-specification:Nanum Gothic"
       x="89.582405"
       y="361.23367"
       id="text3313"
       sodipodi:linespacing="125%"><tspan
         sodipodi:role="line"
         id="tspan3315"
         x="89.582405"
         y="361.23367"
         style="font-size:32px;font-style:normal;font-variant:normal;font-weight:normal;font-stretch:normal;font-family:PortagoITC TT;-inkscape-font-specification:PortagoITC TT">Centaure</tspan></text>
  </g>
</svg>
